<svg width="15" height="15" viewBox="0 0 15 15" fill="none" xmlns="http://www.w3.org/2000/svg">
<path d="M10.6444 7.83166L5.9569 12.5192C5.91335 12.5627 5.86165 12.5973 5.80474 12.6208C5.74784 12.6444 5.68685 12.6565 5.62526 12.6565C5.56367 12.6565 5.50268 12.6444 5.44578 12.6208C5.38887 12.5973 5.33717 12.5627 5.29362 12.5192C5.25007 12.4756 5.21552 12.4239 5.19195 12.367C5.16838 12.3101 5.15625 12.2491 5.15625 12.1875C5.15625 12.1259 5.16838 12.0649 5.19195 12.008C5.21552 11.9511 5.25007 11.8994 5.29362 11.8559L9.65007 7.50002L5.29362 3.14416C5.20566 3.0562 5.15625 2.93691 5.15625 2.81252C5.15625 2.68813 5.20566 2.56883 5.29362 2.48088C5.38158 2.39292 5.50087 2.34351 5.62526 2.34351C5.74965 2.34351 5.86894 2.39292 5.9569 2.48088L10.6444 7.16838C10.688 7.21191 10.7226 7.26361 10.7461 7.32051C10.7697 7.37742 10.7819 7.43842 10.7819 7.50002C10.7819 7.56162 10.7697 7.62261 10.7461 7.67952C10.7226 7.73642 10.688 7.78812 10.6444 7.83166Z" fill="white"/>
</svg>
