<svg width="32" height="32" viewBox="0 0 32 32" fill="none" xmlns="http://www.w3.org/2000/svg">
<path d="M22.7076 16.7071L12.7076 26.7071C12.6147 26.8 12.5044 26.8737 12.383 26.924C12.2616 26.9743 12.1315 27.0001 12.0001 27.0001C11.8687 27.0001 11.7386 26.9743 11.6172 26.924C11.4958 26.8737 11.3855 26.8 11.2926 26.7071C11.1997 26.6142 11.126 26.5039 11.0757 26.3825C11.0254 26.2611 10.9995 26.131 10.9995 25.9996C10.9995 25.8682 11.0254 25.7381 11.0757 25.6167C11.126 25.4953 11.1997 25.385 11.2926 25.2921L20.5863 15.9996L11.2926 6.70708C11.1049 6.51944 10.9995 6.26494 10.9995 5.99958C10.9995 5.73422 11.1049 5.47972 11.2926 5.29208C11.4802 5.10444 11.7347 4.99902 12.0001 4.99902C12.2654 4.99902 12.5199 5.10444 12.7076 5.29208L22.7076 15.2921C22.8005 15.385 22.8743 15.4952 22.9246 15.6166C22.975 15.738 23.0009 15.8682 23.0009 15.9996C23.0009 16.131 22.975 16.2611 22.9246 16.3825C22.8743 16.5039 22.8005 16.6142 22.7076 16.7071Z" fill="#343330"/>
</svg>
