<svg width="32" height="32" viewBox="0 0 32 32" fill="none" xmlns="http://www.w3.org/2000/svg">
<path d="M26.7075 20.7076C26.6146 20.8005 26.5043 20.8743 26.3829 20.9246C26.2615 20.9749 26.1314 21.0008 26 21.0008C25.8686 21.0008 25.7385 20.9749 25.6171 20.9246C25.4957 20.8743 25.3854 20.8005 25.2925 20.7076L16 11.4138L6.70751 20.7076C6.51987 20.8952 6.26537 21.0006 6.00001 21.0006C5.73464 21.0006 5.48015 20.8952 5.29251 20.7076C5.10487 20.5199 4.99945 20.2654 4.99945 20.0001C4.99945 19.7347 5.10487 19.4802 5.29251 19.2926L15.2925 9.29255C15.3854 9.19958 15.4957 9.12582 15.6171 9.07549C15.7385 9.02517 15.8686 8.99927 16 8.99927C16.1314 8.99927 16.2615 9.02517 16.3829 9.07549C16.5043 9.12582 16.6146 9.19958 16.7075 9.29255L26.7075 19.2926C26.8005 19.3854 26.8742 19.4957 26.9246 19.6171C26.9749 19.7385 27.0008 19.8686 27.0008 20.0001C27.0008 20.1315 26.9749 20.2616 26.9246 20.383C26.8742 20.5044 26.8005 20.6147 26.7075 20.7076Z" fill="#343330"/>
</svg>
