<svg width="15" height="15" viewBox="0 0 15 15" fill="none" xmlns="http://www.w3.org/2000/svg">
<path d="M12.5192 5.9569L7.83166 10.6444C7.78812 10.688 7.73642 10.7226 7.67952 10.7461C7.62261 10.7697 7.56162 10.7819 7.50002 10.7819C7.43842 10.7819 7.37742 10.7697 7.32051 10.7461C7.26361 10.7226 7.21191 10.688 7.16838 10.6444L2.48088 5.9569C2.39292 5.86894 2.34351 5.74965 2.34351 5.62526C2.34351 5.50087 2.39292 5.38158 2.48088 5.29362C2.56883 5.20566 2.68813 5.15625 2.81252 5.15625C2.93691 5.15625 3.0562 5.20566 3.14416 5.29362L7.50002 9.65007L11.8559 5.29362C11.8994 5.25007 11.9511 5.21552 12.008 5.19195C12.0649 5.16838 12.1259 5.15625 12.1875 5.15625C12.2491 5.15625 12.3101 5.16838 12.367 5.19195C12.4239 5.21552 12.4756 5.25007 12.5192 5.29362C12.5627 5.33717 12.5973 5.38887 12.6208 5.44578C12.6444 5.50268 12.6565 5.56367 12.6565 5.62526C12.6565 5.68685 12.6444 5.74784 12.6208 5.80474C12.5973 5.86165 12.5627 5.91335 12.5192 5.9569Z" fill="#343330"/>
</svg>
