<svg width="138" height="14" viewBox="0 0 138 14" fill="none" xmlns="http://www.w3.org/2000/svg">
<path d="M120.01 1.17999V13.25H121.95V0.149994H119.89C119.89 0.149994 120.01 0.759994 120.01 1.17999Z" fill="black"/>
<path d="M112.99 10.29C112.99 10.29 111.99 10.27 111.99 9.18999V5.64999H117.66V1.47999C117.66 1.47999 117.84 0.159988 116.34 0.159988H110.01V1.39999H115.83V4.27999H110.03V10.36C110.03 10.36 109.81 11.62 111.41 11.62H118.2V10.3H112.99V10.29Z" fill="black"/>
<path d="M33.6101 1.40999V10.19H26.4801C26.4801 10.19 25.6701 10.15 25.6701 8.94999V0.149994H23.7201V10.35C23.7201 10.35 23.5601 11.55 24.8601 11.55H33.6101V13.26H35.5601V0.149994H33.4901C33.4901 0.149994 33.6101 0.839994 33.6101 1.40999Z" fill="black"/>
<path d="M49.4502 1.25999C49.4502 1.25999 49.5802 0.149994 48.1002 0.149994H37.9302V1.43999H47.4402V2.98999H38.2902V4.31999H47.4402V6.54999H43.5002V4.72999H41.5502V6.56999H37.9502V7.82999H50.1302V6.60999H49.4402V1.25999H49.4502Z" fill="black"/>
<path d="M40.8102 11.16V8.32999H38.8302V12.13C38.8302 12.13 38.6202 13.27 40.1102 13.27C41.6002 13.27 49.6202 13.27 49.6202 13.27V11.99H41.6502C41.6402 11.99 40.8102 11.79 40.8102 11.16Z" fill="black"/>
<path d="M62.3602 1.13998V13.29H64.3702V0.169982H62.2402C62.2402 0.159982 62.3602 0.859982 62.3602 1.13998Z" fill="black"/>
<path d="M59.7602 1.84999C59.3902 1.21999 58.9002 0.769988 58.2802 0.489988C58.2402 0.469988 58.1902 0.449988 58.1502 0.429988C58.1102 0.409988 58.0602 0.389988 58.0102 0.379988C57.7402 0.279988 57.4502 0.209988 57.1302 0.179988C57.1202 0.179988 57.1102 0.179988 57.1002 0.179988C57.0002 0.169988 56.8902 0.169988 56.7802 0.169988C56.7202 0.169988 56.6502 0.159988 56.5902 0.159988C56.5302 0.159988 56.4802 0.169988 56.4302 0.169988C56.2402 0.159988 55.5502 0.139988 54.8102 0.549988C54.2502 0.829988 53.8002 1.26999 53.4502 1.85999C53.3302 2.05999 53.2302 2.26999 53.1302 2.48999V2.49999C52.6902 3.47999 52.4702 4.59999 52.4702 5.83999C52.4702 7.35999 52.8002 8.70999 53.4502 9.86999C53.8002 10.48 54.2602 10.93 54.8302 11.22C55.2902 11.47 55.8402 11.61 56.4902 11.61C56.4902 11.61 57.3802 11.75 58.3502 11.23C58.4202 11.19 58.4902 11.15 58.5602 11.11C58.9002 10.9 59.2002 10.63 59.4502 10.3C59.5002 10.23 59.5502 10.17 59.6002 10.09C59.6402 10.02 59.6902 9.95999 59.7302 9.88999C59.7302 9.87999 59.7402 9.87999 59.7402 9.86999C59.7402 9.86999 59.7402 9.86999 59.7402 9.85999C59.9602 9.49999 60.1602 9.05999 60.3302 8.53999C60.3402 8.49999 60.3602 8.45999 60.3702 8.40999C60.3802 8.38999 60.3802 8.35999 60.3902 8.33999C60.6002 7.62999 60.7202 6.85999 60.7302 6.03999C60.7302 5.98999 60.7402 5.93999 60.7402 5.88999C60.7402 5.88999 60.7402 5.69999 60.7202 5.40999C60.6802 4.04999 60.3602 2.86999 59.7602 1.84999ZM59.0502 6.17999C58.8902 8.80999 57.7802 9.52999 57.0802 9.71999C56.9302 9.75999 56.7702 9.77999 56.6102 9.77999C56.5302 9.77999 56.4602 9.76999 56.3902 9.76999C55.1202 9.54999 54.5602 8.44999 54.3202 7.46999C54.2102 6.99999 54.1602 6.44999 54.1602 5.83999C54.1602 4.55999 54.4002 3.59999 54.8702 2.93999C55.1002 2.60999 55.3702 2.36999 55.6602 2.19999H55.6702C55.7302 2.16999 55.7802 2.13999 55.8402 2.11999C55.8802 2.09999 55.9202 2.08999 55.9602 2.06999C56.0102 2.04999 56.0502 2.03999 56.0902 2.02999C56.1102 2.01999 56.1402 2.01999 56.1602 2.00999C56.2902 1.97999 56.4202 1.95999 56.5602 1.95999C58.1102 1.98999 58.7102 3.26999 58.9502 4.34999C58.9702 4.43999 58.9902 4.52999 59.0002 4.61999C59.0602 4.98999 59.0902 5.38999 59.0902 5.83999C59.0602 5.94999 59.0502 6.05999 59.0502 6.17999Z" fill="black"/>
<path d="M106.92 1.39999C106.92 1.39999 107.13 0.149994 105.51 0.149994L95.53 0.159994V1.51999H104.91V4.23999H95.93V5.59999H104.9V6.65999H104.91V10.34H101.05V6.60999H99.02V10.35H95.54V11.71H107.66V10.35H106.92V1.39999Z" fill="black"/>
<path d="M85.8401 3.82999C85.8401 3.82999 86.9701 5.93999 89.6501 6.91999L90.6101 6.00999C90.6101 6.00999 87.3501 4.47999 86.5901 2.07999C86.5601 1.85999 86.5401 1.61999 86.5301 1.44999H90.1301V0.209991H81.6601V1.45999H85.0701C85.0701 1.45999 85.0801 1.65999 85.0401 1.85999C85.0401 1.85999 84.8501 4.42999 80.8801 6.41999L81.9401 7.44999C81.9201 7.43999 84.5001 6.53999 85.8401 3.82999Z" fill="black"/>
<path d="M91.7001 8.66999C90.4701 8.34999 89.2301 8.17999 87.9801 8.17999C86.7201 8.17999 85.4701 8.33999 84.2101 8.65999C82.9501 8.97999 82.3301 9.68999 82.3301 10.8C82.3301 11.91 82.9601 12.6 84.2101 12.88C85.4701 13.15 86.7201 13.29 87.9801 13.29C89.2401 13.29 90.4801 13.15 91.7101 12.88C92.9401 12.6 93.5501 11.91 93.5501 10.8C93.5401 9.70999 92.9301 8.99999 91.7001 8.66999ZM90.6301 11.81C89.9001 12 89.0201 12.1 87.9701 12.1C86.8001 12.1 85.8701 11.99 85.2001 11.76C84.5301 11.53 84.1901 11.21 84.1901 10.79C84.1901 10.18 84.5801 9.78999 85.3801 9.61999C86.1701 9.45999 87.0301 9.36999 87.9701 9.35999C88.8001 9.33999 89.6301 9.42999 90.4801 9.62999C91.3201 9.82999 91.7401 10.22 91.7301 10.79C91.7301 11.28 91.3701 11.62 90.6301 11.81Z" fill="black"/>
<path d="M91.5402 8.16999H93.5202V0.149994H91.4302C91.4302 0.149994 91.5402 0.749994 91.5402 1.05999V8.16999Z" fill="black"/>
<path d="M73.8801 0.149994H73.1601H68.8201H66.9101L66.9001 10.5C66.9001 10.5 66.9101 11.74 68.2401 11.74H75.1101V1.53999C75.0901 1.53999 75.2001 0.149994 73.8801 0.149994ZM73.1501 9.11999V10.43H69.9201C68.8301 10.43 68.8201 9.27999 68.8201 9.27999V7.97999V1.45999H73.1601V9.11999H73.1501Z" fill="black"/>
<path d="M76.7401 1.17999V13.34H78.7401V0.149994H76.6101C76.6101 0.149994 76.7401 0.939994 76.7401 1.17999Z" fill="black"/>
<path d="M127.85 0.149994C126.41 0.149994 125.36 0.719994 124.71 1.84999C124.05 2.97999 123.73 4.30999 123.73 5.82999C123.73 7.34999 124.06 8.7 124.71 9.84999C125.37 11.01 126.41 11.59 127.85 11.59C129.29 11.59 130.34 11.01 131 9.84999C131.66 8.68999 132 7.34999 132 5.82999C132 4.30999 131.67 2.97999 131.01 1.84999C130.36 0.719994 129.3 0.149994 127.85 0.149994ZM129.62 8.75999C129.16 9.43999 128.57 9.77999 127.86 9.77999C127.16 9.77999 126.58 9.44999 126.11 8.77999C125.64 8.10999 125.4 7.12999 125.4 5.83999C125.4 4.55999 125.64 3.59999 126.11 2.93999C126.58 2.27999 127.16 1.94999 127.86 1.94999C128.57 1.94999 129.15 2.27999 129.62 2.93999C130.08 3.59999 130.32 4.56999 130.32 5.83999C130.31 7.09999 130.08 8.07999 129.62 8.75999Z" fill="black"/>
<path d="M135.95 4.25999H135.7V3.32999V2.46999V0.179993H133.83C133.83 0.179993 133.97 0.949993 133.95 1.23999V13.29H135.7V5.53999H135.96H137.04V4.25999H135.95Z" fill="black"/>
<path d="M10.47 1.47999H14.83V0.179993H4.49998V1.47999H8.84998C8.84998 1.47999 7.98998 4.21999 3.72998 5.01999L4.92998 6.39999C4.92998 6.39999 8.25998 5.62999 9.65998 3.11999C9.65998 3.11999 11.28 5.69999 14.34 6.32999L15.6 5.01999C15.6 5.01999 11.67 4.41999 10.47 1.47999Z" fill="black"/>
<path d="M2.88989 7.25V8.53H8.89989V13.26H10.4299V8.53H16.4299V7.25H2.88989Z" fill="black"/>
<path d="M1.53 0H0V13.5H1.53V0Z" fill="black"/>
<path d="M19.3901 0H17.8601V13.5H19.3901V0Z" fill="black"/>
</svg>
