<svg width="36" height="33" viewBox="0 0 36 33" fill="none" xmlns="http://www.w3.org/2000/svg">
<path d="M8.65142 13.5889C8.29187 13.5889 7.97226 13.7186 7.73256 13.9595C7.47288 14.2005 7.35303 14.497 7.35303 14.8492C7.35303 15.2013 7.47288 15.4793 7.73256 15.7388C7.99224 15.9798 8.29187 16.1095 8.65142 16.1095C9.01098 16.1095 9.33059 15.9798 9.59027 15.7388C9.84994 15.4979 9.98977 15.2013 9.98977 14.8492C9.98977 14.497 9.84994 14.2005 9.59027 13.9595C9.33059 13.7001 9.03096 13.5889 8.65142 13.5889Z" fill="#A7A9AC"/>
<path d="M19.8577 13.5703C19.4982 13.5703 19.1786 13.7001 18.9389 13.941C18.6792 14.1819 18.5593 14.4785 18.5593 14.8306C18.5593 15.1828 18.6792 15.4608 18.9389 15.7203C19.1985 15.9612 19.4982 16.091 19.8577 16.091C20.2173 16.091 20.5369 15.9612 20.7966 15.7203C21.0562 15.4793 21.1961 15.1828 21.1961 14.8306C21.1961 14.4785 21.0562 14.2005 20.7966 13.941C20.5569 13.6815 20.2373 13.5703 19.8577 13.5703Z" fill="#A7A9AC"/>
<path d="M27.3485 13.5889C26.9889 13.5889 26.6693 13.7186 26.4296 13.9595C26.1699 14.2005 26.05 14.497 26.05 14.8492C26.05 15.2013 26.1699 15.4793 26.4296 15.7388C26.6893 15.9798 26.9889 16.1095 27.3485 16.1095C27.708 16.1095 28.0276 15.9798 28.2873 15.7388C28.547 15.4979 28.6868 15.2013 28.6868 14.8492C28.6868 14.497 28.547 14.2005 28.2873 13.9595C28.0276 13.7001 27.708 13.5889 27.3485 13.5889Z" fill="#A7A9AC"/>
<path d="M30.6644 4.43262H5.33568C3.39808 4.43262 1.80005 5.91535 1.80005 7.71316V21.0021C1.80005 22.7999 3.39808 24.2827 5.33568 24.2827H15.2834C15.2834 24.2827 17.201 29.1571 17.9002 29.1571C18.5993 29.1571 20.6767 24.2827 20.6767 24.2827H30.6644C32.602 24.2827 34.2001 22.7999 34.2001 21.0021V7.71316C34.2001 5.91535 32.602 4.43262 30.6644 4.43262ZM11.2084 16.7022C10.7091 17.2212 9.93001 17.4436 9.09105 17.4436C8.33198 17.4436 7.77268 17.2397 7.37317 16.9431H7.35319V17.3138H5.45554V9.62217H7.35319V12.5691H7.39314C7.9125 12.1613 8.59166 12.0316 9.39068 11.9945C10.0698 11.976 10.789 12.3652 11.2284 12.8286C11.6479 13.2919 11.9675 14.0148 11.9675 14.8117C11.9675 15.6828 11.7278 16.1832 11.2084 16.7022ZM15.3034 17.388H13.3658C13.3658 17.388 13.3658 13.3475 13.3658 12.6247C13.3658 11.5312 12.4269 11.3829 12.4269 11.3829V9.4739C12.4269 9.4739 15.1436 9.62217 15.3034 12.6803C15.3034 13.5514 15.3034 17.388 15.3034 17.388ZM22.914 15.9238C22.7542 16.2759 22.5145 16.5725 22.1949 16.8505C21.8952 17.11 21.5357 17.3138 21.1362 17.4621C20.7367 17.6104 20.3172 17.6845 19.8777 17.6845C19.4383 17.6845 19.0188 17.6104 18.6393 17.4621C18.2398 17.3138 17.8802 17.11 17.5806 16.8505C17.261 16.5725 17.0213 16.2574 16.8615 15.9238C16.7017 15.5902 16.6218 15.2195 16.6218 14.8303C16.6218 14.441 16.7017 14.0889 16.8615 13.7367C17.0213 13.4031 17.261 13.0881 17.5806 12.81C17.9002 12.5506 18.2398 12.3467 18.6393 12.1984C19.0388 12.0501 19.4583 11.976 19.8777 11.976C20.3172 11.976 20.7367 12.0501 21.1362 12.1984C21.5357 12.3467 21.8952 12.5506 22.1949 12.81C22.5145 13.0881 22.7342 13.3846 22.914 13.7367C23.0738 14.0889 23.1537 14.441 23.1537 14.8303C23.1537 15.2195 23.0738 15.5716 22.914 15.9238ZM30.5446 16.6837C30.5446 18.0367 30.2649 18.8522 29.6257 19.4267C28.8467 20.1125 27.748 20.1496 26.8292 20.0383V18.6483C27.6082 18.7224 28.6669 18.2405 28.6669 17.3138V16.9617H28.6469C28.2074 17.5177 27.5882 17.7216 26.7293 17.7216C25.9502 17.7216 25.2711 17.4621 24.8116 16.9617C24.3522 16.4613 24.1325 15.794 24.1325 14.96C24.1325 14.0148 24.3922 13.2734 24.8915 12.7174C25.4109 12.1613 26.13 11.9019 26.969 11.9019C27.7081 11.9019 28.1875 12.0687 28.6469 12.4579H28.6669V12.0316H30.5645V16.6837H30.5446Z" fill="#A7A9AC"/>
</svg>
