<svg width="36" height="33" viewBox="0 0 36 33" fill="none" xmlns="http://www.w3.org/2000/svg">
<path fill-rule="evenodd" clip-rule="evenodd" d="M30.8967 6.47756C32.3171 6.82404 33.4347 7.85284 33.8131 9.16415C34.5 11.5362 34.4942 16.483 34.4942 16.483C34.4942 16.483 34.4942 21.4297 33.8073 23.8018C33.4289 25.1078 32.3113 26.1366 30.8909 26.4884C28.318 27.1227 17.9971 27.1227 17.9971 27.1227C17.9971 27.1227 7.67622 27.1227 5.10328 26.4884C3.68292 26.1419 2.56527 25.1131 2.18689 23.8018C1.5 21.4297 1.5 16.483 1.5 16.483C1.5 16.483 1.5 11.5362 2.19271 9.15882C2.57109 7.85284 3.68875 6.82404 5.1091 6.47223C7.68204 5.83789 18.0029 5.83789 18.0029 5.83789C18.0029 5.83789 28.318 5.83789 30.8967 6.47756ZM23.2536 16.483L14.6266 11.9894V20.9767L23.2536 16.483Z" fill="#A7A9AC"/>
</svg>
