<svg width="40" height="40" viewBox="0 0 40 40" fill="none" xmlns="http://www.w3.org/2000/svg">
<circle cx="20" cy="20" r="20" fill="#357BD7"/>
<path d="M26.875 13.125H15.625C15.2935 13.125 14.9755 13.2567 14.7411 13.4911C14.5067 13.7255 14.375 14.0435 14.375 14.375V15.625H13.125C12.7935 15.625 12.4755 15.7567 12.2411 15.9911C12.0067 16.2255 11.875 16.5435 11.875 16.875V25.625C11.875 25.9565 12.0067 26.2745 12.2411 26.5089C12.4755 26.7433 12.7935 26.875 13.125 26.875H24.375C24.7065 26.875 25.0245 26.7433 25.2589 26.5089C25.4933 26.2745 25.625 25.9565 25.625 25.625V24.375H26.875C27.2065 24.375 27.5245 24.2433 27.7589 24.0089C27.9933 23.7745 28.125 23.4565 28.125 23.125V14.375C28.125 14.0435 27.9933 13.7255 27.7589 13.4911C27.5245 13.2567 27.2065 13.125 26.875 13.125ZM15.625 14.375H26.875V19.2773L26.0883 18.4914C25.9722 18.3753 25.8344 18.2832 25.6827 18.2204C25.531 18.1575 25.3685 18.1252 25.2043 18.1252C25.0401 18.1252 24.8776 18.1575 24.7259 18.2204C24.5742 18.2832 24.4364 18.3753 24.3203 18.4914L22.7578 20.0539L19.3203 16.6164C19.0859 16.3822 18.7681 16.2506 18.4367 16.2506C18.1053 16.2506 17.7875 16.3822 17.5531 16.6164L15.625 18.5445V14.375ZM24.375 25.625H13.125V16.875H14.375V23.125C14.375 23.4565 14.5067 23.7745 14.7411 24.0089C14.9755 24.2433 15.2935 24.375 15.625 24.375H24.375V25.625ZM26.875 23.125H15.625V20.3125L18.4375 17.5L22.3172 21.3797C22.4344 21.4968 22.5933 21.5626 22.759 21.5626C22.9247 21.5626 23.0836 21.4968 23.2008 21.3797L25.2055 19.375L26.875 21.0453V23.125ZM22.5 16.5625C22.5 16.3771 22.555 16.1958 22.658 16.0417C22.761 15.8875 22.9074 15.7673 23.0787 15.6964C23.25 15.6254 23.4385 15.6068 23.6204 15.643C23.8023 15.6792 23.9693 15.7685 24.1004 15.8996C24.2315 16.0307 24.3208 16.1977 24.357 16.3796C24.3932 16.5615 24.3746 16.75 24.3036 16.9213C24.2327 17.0926 24.1125 17.239 23.9583 17.342C23.8042 17.445 23.6229 17.5 23.4375 17.5C23.1889 17.5 22.9504 17.4012 22.7746 17.2254C22.5988 17.0496 22.5 16.8111 22.5 16.5625Z" fill="white"/>
</svg>
