<svg width="60" height="60" viewBox="0 0 60 60" fill="none" xmlns="http://www.w3.org/2000/svg">
<rect width="60" height="60" rx="15" fill="#EEEEEE"/>
<path d="M36.6923 32.9422C36.6342 33.0003 36.5653 33.0464 36.4894 33.0779C36.4136 33.1093 36.3322 33.1255 36.2501 33.1255C36.168 33.1255 36.0866 33.1093 36.0108 33.0779C35.9349 33.0464 35.866 33.0003 35.8079 32.9422L30.0001 27.1336L24.1923 32.9422C24.075 33.0595 23.916 33.1254 23.7501 33.1254C23.5843 33.1254 23.4252 33.0595 23.3079 32.9422C23.1906 32.8249 23.1248 32.6659 23.1248 32.5C23.1248 32.3342 23.1906 32.1751 23.3079 32.0578L29.5579 25.8078C29.616 25.7497 29.6849 25.7036 29.7608 25.6722C29.8366 25.6407 29.918 25.6245 30.0001 25.6245C30.0822 25.6245 30.1636 25.6407 30.2394 25.6722C30.3153 25.7036 30.3842 25.7497 30.4423 25.8078L36.6923 32.0578C36.7504 32.1159 36.7965 32.1848 36.828 32.2607C36.8594 32.3365 36.8756 32.4179 36.8756 32.5C36.8756 32.5821 36.8594 32.6635 36.828 32.7393C36.7965 32.8152 36.7504 32.8841 36.6923 32.9422Z" fill="#343330"/>
</svg>
