<svg width="40" height="40" viewBox="0 0 40 40" fill="none" xmlns="http://www.w3.org/2000/svg">
<circle cx="20" cy="20" r="20" fill="#D735A6"/>
<path d="M26.875 17.5002C26.8757 16.3416 26.5836 15.2016 26.0258 14.1861C25.468 13.1707 24.6626 12.3126 23.6844 11.6917C22.7062 11.0708 21.587 10.7072 20.4307 10.6346C19.2744 10.562 18.1185 10.7828 17.0703 11.2766C16.0222 11.7703 15.1158 12.5209 14.4354 13.4586C13.755 14.3964 13.3227 15.4909 13.1785 16.6405C13.0343 17.79 13.1829 18.9574 13.6107 20.0342C14.0384 21.1109 14.7313 22.0621 15.625 22.7994V28.7502C15.6249 28.8568 15.6521 28.9616 15.704 29.0547C15.7558 29.1479 15.8307 29.2262 15.9213 29.2822C16.012 29.3383 16.1155 29.3702 16.2219 29.375C16.3284 29.3798 16.4344 29.3573 16.5297 29.3096L20 27.5783L23.4711 29.3135C23.5581 29.3551 23.6535 29.3762 23.75 29.3752C23.9158 29.3752 24.0747 29.3093 24.1919 29.1921C24.3092 29.0749 24.375 28.9159 24.375 28.7502V22.7994C25.157 22.1554 25.7867 21.3462 26.2189 20.43C26.6512 19.5138 26.8752 18.5132 26.875 17.5002ZM14.375 17.5002C14.375 16.3877 14.7049 15.3001 15.323 14.3751C15.9411 13.4501 16.8196 12.7291 17.8474 12.3034C18.8752 11.8776 20.0062 11.7662 21.0974 11.9833C22.1885 12.2003 23.1908 12.736 23.9775 13.5227C24.7641 14.3094 25.2999 15.3117 25.5169 16.4028C25.734 17.4939 25.6226 18.6249 25.1968 19.6528C24.7711 20.6806 24.0501 21.5591 23.1251 22.1772C22.2001 22.7953 21.1125 23.1252 20 23.1252C18.5087 23.1235 17.0789 22.5304 16.0244 21.4758C14.9698 20.4213 14.3767 18.9915 14.375 17.5002ZM23.125 27.7392L20.2789 26.3166C20.1921 26.2731 20.0963 26.2505 19.9992 26.2505C19.9021 26.2505 19.8064 26.2731 19.7195 26.3166L16.875 27.7392V23.6228C17.8425 24.1173 18.9135 24.3752 20 24.3752C21.0865 24.3752 22.1575 24.1173 23.125 23.6228V27.7392ZM20 21.8752C20.8653 21.8752 21.7112 21.6186 22.4306 21.1379C23.1501 20.6571 23.7108 19.9738 24.042 19.1744C24.3731 18.375 24.4597 17.4953 24.2909 16.6467C24.1221 15.798 23.7054 15.0184 23.0936 14.4066C22.4817 13.7947 21.7022 13.3781 20.8535 13.2092C20.0049 13.0404 19.1252 13.1271 18.3258 13.4582C17.5263 13.7893 16.8431 14.3501 16.3623 15.0696C15.8816 15.789 15.625 16.6349 15.625 17.5002C15.6262 18.6601 16.0876 19.7722 16.9078 20.5924C17.728 21.4126 18.8401 21.8739 20 21.8752ZM20 14.3752C20.6181 14.3752 21.2223 14.5585 21.7362 14.9018C22.2501 15.2452 22.6506 15.7333 22.8871 16.3043C23.1236 16.8753 23.1855 17.5036 23.065 18.1098C22.9444 18.716 22.6467 19.2728 22.2097 19.7099C21.7727 20.1469 21.2158 20.4446 20.6097 20.5651C20.0035 20.6857 19.3751 20.6238 18.8041 20.3873C18.2331 20.1508 17.745 19.7502 17.4017 19.2363C17.0583 18.7224 16.875 18.1182 16.875 17.5002C16.875 16.6714 17.2042 15.8765 17.7903 15.2905C18.3763 14.7044 19.1712 14.3752 20 14.3752Z" fill="white"/>
</svg>
