<svg width="40" height="40" viewBox="0 0 40 40" fill="none" xmlns="http://www.w3.org/2000/svg">
<circle cx="20" cy="20" r="20" fill="#7835D7"/>
<path d="M29.375 26.25H28.125V17.5C28.2908 17.5 28.4497 17.4342 28.5669 17.3169C28.6842 17.1997 28.75 17.0408 28.75 16.875C28.75 16.7092 28.6842 16.5503 28.5669 16.4331C28.4497 16.3158 28.2908 16.25 28.125 16.25H24.375V13.75C24.5408 13.75 24.6997 13.6842 24.8169 13.5669C24.9342 13.4497 25 13.2908 25 13.125C25 12.9592 24.9342 12.8003 24.8169 12.6831C24.6997 12.5658 24.5408 12.5 24.375 12.5H13.125C12.9592 12.5 12.8003 12.5658 12.6831 12.6831C12.5658 12.8003 12.5 12.9592 12.5 13.125C12.5 13.2908 12.5658 13.4497 12.6831 13.5669C12.8003 13.6842 12.9592 13.75 13.125 13.75V26.25H11.875C11.7092 26.25 11.5503 26.3158 11.4331 26.4331C11.3158 26.5503 11.25 26.7092 11.25 26.875C11.25 27.0408 11.3158 27.1997 11.4331 27.3169C11.5503 27.4342 11.7092 27.5 11.875 27.5H29.375C29.5408 27.5 29.6997 27.4342 29.8169 27.3169C29.9342 27.1997 30 27.0408 30 26.875C30 26.7092 29.9342 26.5503 29.8169 26.4331C29.6997 26.3158 29.5408 26.25 29.375 26.25ZM26.875 17.5V26.25H24.375V17.5H26.875ZM14.375 13.75H23.125V26.25H21.25V22.5C21.25 22.3342 21.1842 22.1753 21.0669 22.0581C20.9497 21.9408 20.7908 21.875 20.625 21.875H16.875C16.7092 21.875 16.5503 21.9408 16.4331 22.0581C16.3158 22.1753 16.25 22.3342 16.25 22.5V26.25H14.375V13.75ZM20 26.25H17.5V23.125H20V26.25ZM15.625 16.25C15.625 16.0842 15.6908 15.9253 15.8081 15.8081C15.9253 15.6908 16.0842 15.625 16.25 15.625H17.5C17.6658 15.625 17.8247 15.6908 17.9419 15.8081C18.0592 15.9253 18.125 16.0842 18.125 16.25C18.125 16.4158 18.0592 16.5747 17.9419 16.6919C17.8247 16.8092 17.6658 16.875 17.5 16.875H16.25C16.0842 16.875 15.9253 16.8092 15.8081 16.6919C15.6908 16.5747 15.625 16.4158 15.625 16.25ZM19.375 16.25C19.375 16.0842 19.4408 15.9253 19.5581 15.8081C19.6753 15.6908 19.8342 15.625 20 15.625H21.25C21.4158 15.625 21.5747 15.6908 21.6919 15.8081C21.8092 15.9253 21.875 16.0842 21.875 16.25C21.875 16.4158 21.8092 16.5747 21.6919 16.6919C21.5747 16.8092 21.4158 16.875 21.25 16.875H20C19.8342 16.875 19.6753 16.8092 19.5581 16.6919C19.4408 16.5747 19.375 16.4158 19.375 16.25ZM15.625 19.375C15.625 19.2092 15.6908 19.0503 15.8081 18.9331C15.9253 18.8158 16.0842 18.75 16.25 18.75H17.5C17.6658 18.75 17.8247 18.8158 17.9419 18.9331C18.0592 19.0503 18.125 19.2092 18.125 19.375C18.125 19.5408 18.0592 19.6997 17.9419 19.8169C17.8247 19.9342 17.6658 20 17.5 20H16.25C16.0842 20 15.9253 19.9342 15.8081 19.8169C15.6908 19.6997 15.625 19.5408 15.625 19.375ZM19.375 19.375C19.375 19.2092 19.4408 19.0503 19.5581 18.9331C19.6753 18.8158 19.8342 18.75 20 18.75H21.25C21.4158 18.75 21.5747 18.8158 21.6919 18.9331C21.8092 19.0503 21.875 19.2092 21.875 19.375C21.875 19.5408 21.8092 19.6997 21.6919 19.8169C21.5747 19.9342 21.4158 20 21.25 20H20C19.8342 20 19.6753 19.9342 19.5581 19.8169C19.4408 19.6997 19.375 19.5408 19.375 19.375Z" fill="white"/>
</svg>
