<svg width="25" height="25" viewBox="0 0 25 25" fill="none" xmlns="http://www.w3.org/2000/svg">
<path d="M22.6633 18.2382C23.2031 17.1185 23.468 15.8863 23.4359 14.6437C23.4039 13.4011 23.0758 12.1841 22.4789 11.0938C21.882 10.0035 21.0336 9.07136 20.0042 8.37479C18.9747 7.67822 17.7939 7.23734 16.5598 7.08878C16.1492 6.13406 15.5522 5.27086 14.8038 4.54974C14.0554 3.82861 13.1707 3.26406 12.2014 2.88913C11.2321 2.5142 10.1977 2.33644 9.15886 2.36625C8.12001 2.39606 7.09754 2.63285 6.15134 3.06275C5.20514 3.49264 4.35423 4.10701 3.64842 4.86986C2.94262 5.63272 2.39612 6.52873 2.04092 7.50543C1.68572 8.48212 1.52896 9.51988 1.57983 10.5579C1.6307 11.5959 1.88816 12.6134 2.33715 13.5507L1.62719 15.9638C1.54781 16.2332 1.5425 16.519 1.61183 16.7911C1.68115 17.0633 1.82254 17.3117 2.02112 17.5103C2.2197 17.7089 2.46814 17.8502 2.74029 17.9196C3.01243 17.9889 3.29823 17.9836 3.56762 17.9042L5.98071 17.1942C6.75554 17.5665 7.58626 17.809 8.43969 17.912C8.85432 18.8835 9.46164 19.7608 10.2249 20.4909C10.9883 21.2211 11.8917 21.7888 12.8806 22.1599C13.8696 22.5309 14.9235 22.6976 15.9787 22.6498C17.0339 22.602 18.0684 22.3407 19.0198 21.8817L21.4329 22.5917C21.7021 22.671 21.9878 22.6763 22.2598 22.607C22.5319 22.5377 22.7802 22.3964 22.9788 22.198C23.1773 21.9995 23.3187 21.7512 23.3881 21.4793C23.4576 21.2073 23.4524 20.9216 23.3733 20.6523L22.6633 18.2382ZM6.05493 15.5761C5.98027 15.5763 5.90599 15.5868 5.83422 15.6073L3.12524 16.4062L3.92309 13.6952C3.97983 13.4994 3.95776 13.2891 3.86157 13.1093C3.15484 11.7876 2.9466 10.2559 3.27481 8.79353C3.60303 7.33112 4.44583 6.03536 5.6496 5.14244C6.85336 4.24952 8.33792 3.81891 9.83265 3.92911C11.3274 4.03931 12.7327 4.68298 13.7925 5.74277C14.8523 6.80258 15.496 8.20793 15.6062 9.70266C15.7164 11.1974 15.2858 12.6819 14.3929 13.8857C13.4999 15.0895 12.2042 15.9323 10.7418 16.2605C9.27937 16.5887 7.74772 16.3805 6.42602 15.6737C6.31236 15.6108 6.18482 15.5773 6.05493 15.5761ZM21.0735 18.3817L21.8752 21.0937L19.1643 20.2958C18.9684 20.2391 18.7582 20.2611 18.5784 20.3573C17.1397 21.1255 15.4579 21.3014 13.8915 20.8476C12.325 20.3937 10.9978 19.3459 10.1926 17.9276C11.2623 17.816 12.2974 17.4845 13.233 16.9539C14.1685 16.4234 14.9843 15.7052 15.6292 14.8445C16.2741 13.9837 16.7341 12.999 16.9805 11.9521C17.2268 10.9052 17.2542 9.81864 17.0608 8.76065C17.9928 8.98035 18.8619 9.41126 19.6009 10.0201C20.34 10.629 20.9293 11.3995 21.3233 12.2723C21.7173 13.145 21.9055 14.0967 21.8733 15.0537C21.8412 16.0107 21.5896 16.9475 21.1379 17.7919C21.0407 17.9728 21.0186 18.1847 21.0764 18.3817H21.0735Z" fill="#343330"/>
</svg>
