<svg width="25" height="25" viewBox="0 0 25 25" fill="none" xmlns="http://www.w3.org/2000/svg">
<path d="M17.9688 7.03131C17.9689 5.98304 17.6677 4.95681 17.1011 4.07486C16.5345 3.1929 15.7263 2.49237 14.7729 2.0567C13.8194 1.62102 12.7608 1.46856 11.7232 1.61747C10.6855 1.76638 9.71253 2.21038 8.92007 2.8966C8.12761 3.58282 7.54908 4.48234 7.25336 5.48805C6.95764 6.49375 6.95721 7.56326 7.2521 8.5692C7.547 9.57515 8.1248 10.4751 8.9167 11.162C9.7086 11.8489 10.6812 12.2937 11.7188 12.4434V22.6563C11.7188 22.8635 11.8011 23.0622 11.9476 23.2087C12.0941 23.3553 12.2928 23.4376 12.5 23.4376C12.7072 23.4376 12.9059 23.3553 13.0524 23.2087C13.1989 23.0622 13.2812 22.8635 13.2812 22.6563V12.4434C14.582 12.2538 15.7711 11.6028 16.6317 10.6093C17.4922 9.61567 17.9668 8.34576 17.9688 7.03131ZM12.5 10.9376C11.7274 10.9376 10.9722 10.7085 10.3298 10.2792C9.68742 9.85002 9.18675 9.23995 8.8911 8.52617C8.59544 7.8124 8.51808 7.02698 8.66881 6.26924C8.81953 5.5115 9.19157 4.81548 9.73786 4.26918C10.2842 3.72288 10.9802 3.35085 11.7379 3.20012C12.4957 3.0494 13.2811 3.12676 13.9949 3.42241C14.7086 3.71806 15.3187 4.21874 15.7479 4.86112C16.1772 5.5035 16.4062 6.25873 16.4062 7.03131C16.4062 7.54429 16.3052 8.05224 16.1089 8.52617C15.9126 9.0001 15.6249 9.43072 15.2621 9.79345C14.8994 10.1562 14.4688 10.4439 13.9949 10.6402C13.5209 10.8365 13.013 10.9376 12.5 10.9376Z" fill="#343330"/>
</svg>
