<svg width="371" height="159" viewBox="0 0 371 159" fill="none" xmlns="http://www.w3.org/2000/svg">
<rect x="10" y="10" width="351" height="139" rx="12" fill="#FF0302"/>
<path d="M105.522 69.9001C105.522 69.9001 105.053 66.5907 103.609 65.1376C101.781 63.2251 99.7375 63.2157 98.8 63.1032C92.0875 62.6157 82.0094 62.6157 82.0094 62.6157H81.9906C81.9906 62.6157 71.9125 62.6157 65.2 63.1032C64.2625 63.2157 62.2188 63.2251 60.3906 65.1376C58.9469 66.5907 58.4875 69.9001 58.4875 69.9001C58.4875 69.9001 58 73.7907 58 77.672V81.3095C58 85.1907 58.4781 89.0813 58.4781 89.0813C58.4781 89.0813 58.9469 92.3907 60.3812 93.8438C62.2094 95.7563 64.6094 95.6907 65.6781 95.897C69.5219 96.2626 82 96.3751 82 96.3751C82 96.3751 92.0875 96.3563 98.8 95.8782C99.7375 95.7657 101.781 95.7563 103.609 93.8438C105.053 92.3907 105.522 89.0813 105.522 89.0813C105.522 89.0813 106 85.2001 106 81.3095V77.672C106 73.7907 105.522 69.9001 105.522 69.9001ZM77.0406 85.7251V72.2345L90.0062 79.0032L77.0406 85.7251Z" fill="white"/>
<path d="M143.398 96.592C142.426 96.592 141.532 96.436 140.716 96.124C139.9 95.812 139.192 95.368 138.592 94.792C137.992 94.228 137.524 93.562 137.188 92.794C136.864 92.026 136.702 91.186 136.702 90.274C136.702 89.314 136.87 88.426 137.206 87.61C137.542 86.782 138.01 86.062 138.61 85.45C139.21 84.838 139.918 84.364 140.734 84.028C141.55 83.692 142.438 83.524 143.398 83.524C144.262 83.524 145.06 83.668 145.792 83.956C146.536 84.232 147.184 84.622 147.736 85.126C148.288 85.618 148.72 86.194 149.032 86.854C149.344 87.514 149.5 88.228 149.5 88.996C149.5 89.812 149.35 90.532 149.05 91.156C148.762 91.78 148.36 92.272 147.844 92.632C147.328 92.98 146.728 93.154 146.044 93.154C145.156 93.154 144.532 92.908 144.172 92.416C143.908 92.656 143.614 92.842 143.29 92.974C142.966 93.094 142.636 93.154 142.3 93.154C141.808 93.154 141.358 93.028 140.95 92.776C140.554 92.524 140.242 92.188 140.014 91.768C139.786 91.336 139.672 90.862 139.672 90.346C139.672 89.722 139.816 89.164 140.104 88.672C140.392 88.18 140.776 87.784 141.256 87.484C141.736 87.184 142.282 87.034 142.894 87.034C143.53 87.034 144.076 87.226 144.532 87.61L144.604 87.268H146.35L145.576 90.976C145.516 91.276 145.552 91.51 145.684 91.678C145.816 91.834 146.026 91.912 146.314 91.912C146.674 91.912 146.998 91.792 147.286 91.552C147.574 91.312 147.796 90.982 147.952 90.562C148.108 90.142 148.186 89.662 148.186 89.122C148.186 88.258 147.97 87.49 147.538 86.818C147.118 86.146 146.542 85.612 145.81 85.216C145.09 84.82 144.268 84.622 143.344 84.622C142.6 84.622 141.898 84.766 141.238 85.054C140.59 85.33 140.02 85.72 139.528 86.224C139.048 86.716 138.67 87.304 138.394 87.988C138.13 88.66 137.998 89.386 137.998 90.166C137.998 91.198 138.226 92.104 138.682 92.884C139.138 93.664 139.768 94.276 140.572 94.72C141.388 95.164 142.324 95.386 143.38 95.386C144.472 95.386 145.456 95.176 146.332 94.756L146.8 95.8C146.236 96.064 145.672 96.262 145.108 96.394C144.556 96.526 143.986 96.592 143.398 96.592ZM142.714 91.714C143.146 91.714 143.524 91.564 143.848 91.264C143.86 91.18 143.866 91.096 143.866 91.012C143.878 90.928 143.896 90.832 143.92 90.724L144.226 89.122C144.082 88.918 143.902 88.768 143.686 88.672C143.482 88.564 143.236 88.51 142.948 88.51C142.672 88.51 142.408 88.588 142.156 88.744C141.916 88.888 141.724 89.092 141.58 89.356C141.436 89.608 141.364 89.89 141.364 90.202C141.364 90.646 141.49 91.012 141.742 91.3C141.994 91.576 142.318 91.714 142.714 91.714ZM151.14 94V84.622H153.606V85.396C154.314 84.76 155.19 84.442 156.234 84.442C156.966 84.442 157.608 84.604 158.16 84.928C158.724 85.24 159.162 85.678 159.474 86.242C159.786 86.794 159.942 87.442 159.942 88.186V94H157.476V88.546C157.476 87.934 157.302 87.454 156.954 87.106C156.606 86.746 156.132 86.566 155.532 86.566C155.112 86.566 154.74 86.65 154.416 86.818C154.092 86.974 153.822 87.202 153.606 87.502V94H151.14ZM161.81 94V84.622H164.276V94H161.81ZM163.034 83.506C162.65 83.506 162.32 83.368 162.044 83.092C161.768 82.816 161.63 82.486 161.63 82.102C161.63 81.706 161.768 81.376 162.044 81.112C162.32 80.836 162.65 80.698 163.034 80.698C163.43 80.698 163.76 80.836 164.024 81.112C164.3 81.376 164.438 81.706 164.438 82.102C164.438 82.486 164.3 82.816 164.024 83.092C163.76 83.368 163.43 83.506 163.034 83.506ZM166.204 94V81.4L168.67 80.986V88.564L172.72 84.622H175.51L171.082 88.924L175.78 94H172.63L168.67 89.716V94H166.204ZM180.198 94.18C179.262 94.18 178.416 93.964 177.66 93.532C176.904 93.1 176.304 92.518 175.86 91.786C175.416 91.054 175.194 90.232 175.194 89.32C175.194 88.408 175.41 87.586 175.842 86.854C176.286 86.11 176.886 85.522 177.642 85.09C178.41 84.658 179.262 84.442 180.198 84.442C181.134 84.442 181.98 84.658 182.736 85.09C183.504 85.522 184.104 86.11 184.536 86.854C184.98 87.586 185.202 88.408 185.202 89.32C185.202 90.232 184.98 91.054 184.536 91.786C184.104 92.518 183.51 93.1 182.754 93.532C181.998 93.964 181.146 94.18 180.198 94.18ZM180.198 92.038C180.69 92.038 181.128 91.918 181.512 91.678C181.908 91.438 182.22 91.114 182.448 90.706C182.688 90.286 182.808 89.824 182.808 89.32C182.808 88.804 182.688 88.342 182.448 87.934C182.22 87.526 181.908 87.202 181.512 86.962C181.128 86.71 180.69 86.584 180.198 86.584C179.718 86.584 179.28 86.71 178.884 86.962C178.488 87.202 178.176 87.526 177.948 87.934C177.72 88.342 177.606 88.804 177.606 89.32C177.606 89.824 177.72 90.286 177.948 90.706C178.176 91.114 178.488 91.438 178.884 91.678C179.28 91.918 179.718 92.038 180.198 92.038ZM186.718 94V84.622H189.184V85.396C189.892 84.76 190.768 84.442 191.812 84.442C192.544 84.442 193.186 84.604 193.738 84.928C194.302 85.24 194.74 85.678 195.052 86.242C195.364 86.794 195.52 87.442 195.52 88.186V94H193.054V88.546C193.054 87.934 192.88 87.454 192.532 87.106C192.184 86.746 191.71 86.566 191.11 86.566C190.69 86.566 190.318 86.65 189.994 86.818C189.67 86.974 189.4 87.202 189.184 87.502V94H186.718ZM197.388 94V84.622H199.854V94H197.388ZM198.612 83.506C198.228 83.506 197.898 83.368 197.622 83.092C197.346 82.816 197.208 82.486 197.208 82.102C197.208 81.706 197.346 81.376 197.622 81.112C197.898 80.836 198.228 80.698 198.612 80.698C199.008 80.698 199.338 80.836 199.602 81.112C199.878 81.376 200.016 81.706 200.016 82.102C200.016 82.486 199.878 82.816 199.602 83.092C199.338 83.368 199.008 83.506 198.612 83.506ZM201.783 94V84.622H204.249V85.342C204.921 84.742 205.737 84.442 206.697 84.442C207.309 84.442 207.855 84.568 208.335 84.82C208.815 85.06 209.211 85.402 209.523 85.846C209.907 85.39 210.357 85.042 210.873 84.802C211.401 84.562 211.983 84.442 212.619 84.442C213.327 84.442 213.945 84.604 214.473 84.928C215.013 85.24 215.433 85.678 215.733 86.242C216.045 86.794 216.201 87.442 216.201 88.186V94H213.753V88.546C213.753 87.934 213.591 87.454 213.267 87.106C212.943 86.746 212.511 86.566 211.971 86.566C211.599 86.566 211.257 86.644 210.945 86.8C210.645 86.956 210.387 87.19 210.171 87.502C210.183 87.61 210.195 87.718 210.207 87.826C210.219 87.934 210.225 88.054 210.225 88.186V94H207.759V88.546C207.759 87.934 207.597 87.454 207.273 87.106C206.961 86.746 206.535 86.566 205.995 86.566C205.623 86.566 205.287 86.638 204.987 86.782C204.699 86.926 204.453 87.142 204.249 87.43V94H201.783ZM221.065 94.162C220.393 94.162 219.799 94.042 219.283 93.802C218.767 93.55 218.365 93.208 218.077 92.776C217.789 92.344 217.645 91.846 217.645 91.282C217.645 90.382 217.981 89.686 218.653 89.194C219.337 88.69 220.273 88.438 221.461 88.438C222.277 88.438 223.045 88.564 223.765 88.816V88.132C223.765 87.592 223.597 87.184 223.261 86.908C222.925 86.632 222.433 86.494 221.785 86.494C221.389 86.494 220.963 86.56 220.507 86.692C220.051 86.812 219.523 87.004 218.923 87.268L218.023 85.45C218.767 85.114 219.475 84.862 220.147 84.694C220.831 84.526 221.515 84.442 222.199 84.442C223.459 84.442 224.437 84.748 225.133 85.36C225.841 85.96 226.195 86.812 226.195 87.916V94H223.765V93.334C223.381 93.622 222.967 93.832 222.523 93.964C222.079 94.096 221.593 94.162 221.065 94.162ZM219.985 91.228C219.985 91.588 220.141 91.876 220.453 92.092C220.765 92.296 221.179 92.398 221.695 92.398C222.103 92.398 222.481 92.35 222.829 92.254C223.177 92.146 223.489 91.99 223.765 91.786V90.418C223.465 90.298 223.153 90.208 222.829 90.148C222.505 90.088 222.157 90.058 221.785 90.058C221.221 90.058 220.777 90.166 220.453 90.382C220.141 90.586 219.985 90.868 219.985 91.228ZM232.778 97.852C232.058 97.852 231.362 97.774 230.69 97.618C230.018 97.474 229.412 97.264 228.872 96.988L229.736 95.08C230.252 95.332 230.756 95.518 231.248 95.638C231.74 95.758 232.232 95.818 232.724 95.818C233.456 95.818 234.008 95.662 234.38 95.35C234.764 95.038 234.956 94.57 234.956 93.946V93.208C234.188 93.772 233.33 94.054 232.382 94.054C231.494 94.054 230.69 93.844 229.97 93.424C229.262 92.992 228.692 92.41 228.26 91.678C227.84 90.946 227.63 90.136 227.63 89.248C227.63 88.36 227.84 87.556 228.26 86.836C228.692 86.116 229.274 85.546 230.006 85.126C230.738 84.694 231.554 84.478 232.454 84.478C232.91 84.478 233.354 84.544 233.786 84.676C234.218 84.808 234.62 84.994 234.992 85.234V84.622H237.422V93.982C237.422 95.218 237.02 96.172 236.216 96.844C235.424 97.516 234.278 97.852 232.778 97.852ZM232.76 91.966C233.216 91.966 233.63 91.894 234.002 91.75C234.374 91.594 234.692 91.378 234.956 91.102V87.43C234.692 87.166 234.368 86.962 233.984 86.818C233.612 86.662 233.21 86.584 232.778 86.584C232.262 86.584 231.8 86.704 231.392 86.944C230.984 87.172 230.66 87.49 230.42 87.898C230.18 88.294 230.06 88.744 230.06 89.248C230.06 89.764 230.174 90.226 230.402 90.634C230.642 91.042 230.966 91.366 231.374 91.606C231.794 91.846 232.256 91.966 232.76 91.966ZM239.347 94V84.622H241.813V94H239.347ZM240.571 83.506C240.187 83.506 239.857 83.368 239.581 83.092C239.305 82.816 239.167 82.486 239.167 82.102C239.167 81.706 239.305 81.376 239.581 81.112C239.857 80.836 240.187 80.698 240.571 80.698C240.967 80.698 241.297 80.836 241.561 81.112C241.837 81.376 241.975 81.706 241.975 82.102C241.975 82.486 241.837 82.816 241.561 83.092C241.297 83.368 240.967 83.506 240.571 83.506ZM243.742 94V84.622H246.208V85.396C246.916 84.76 247.792 84.442 248.836 84.442C249.568 84.442 250.21 84.604 250.762 84.928C251.326 85.24 251.764 85.678 252.076 86.242C252.388 86.794 252.544 87.442 252.544 88.186V94H250.078V88.546C250.078 87.934 249.904 87.454 249.556 87.106C249.208 86.746 248.734 86.566 248.134 86.566C247.714 86.566 247.342 86.65 247.018 86.818C246.694 86.974 246.424 87.202 246.208 87.502V94H243.742ZM259.127 97.852C258.407 97.852 257.711 97.774 257.039 97.618C256.367 97.474 255.761 97.264 255.221 96.988L256.085 95.08C256.601 95.332 257.105 95.518 257.597 95.638C258.089 95.758 258.581 95.818 259.073 95.818C259.805 95.818 260.357 95.662 260.729 95.35C261.113 95.038 261.305 94.57 261.305 93.946V93.208C260.537 93.772 259.679 94.054 258.731 94.054C257.843 94.054 257.039 93.844 256.319 93.424C255.611 92.992 255.041 92.41 254.609 91.678C254.189 90.946 253.979 90.136 253.979 89.248C253.979 88.36 254.189 87.556 254.609 86.836C255.041 86.116 255.623 85.546 256.355 85.126C257.087 84.694 257.903 84.478 258.803 84.478C259.259 84.478 259.703 84.544 260.135 84.676C260.567 84.808 260.969 84.994 261.341 85.234V84.622H263.771V93.982C263.771 95.218 263.369 96.172 262.565 96.844C261.773 97.516 260.627 97.852 259.127 97.852ZM259.109 91.966C259.565 91.966 259.979 91.894 260.351 91.75C260.723 91.594 261.041 91.378 261.305 91.102V87.43C261.041 87.166 260.717 86.962 260.333 86.818C259.961 86.662 259.559 86.584 259.127 86.584C258.611 86.584 258.149 86.704 257.741 86.944C257.333 87.172 257.009 87.49 256.769 87.898C256.529 88.294 256.409 88.744 256.409 89.248C256.409 89.764 256.523 90.226 256.751 90.634C256.991 91.042 257.315 91.366 257.723 91.606C258.143 91.846 258.605 91.966 259.109 91.966ZM265.697 94V81.4L268.163 80.986V88.564L272.213 84.622H275.003L270.575 88.924L275.273 94H272.123L268.163 89.716V94H265.697ZM279.69 94.18C278.754 94.18 277.908 93.964 277.152 93.532C276.396 93.1 275.796 92.518 275.352 91.786C274.908 91.054 274.686 90.232 274.686 89.32C274.686 88.408 274.902 87.586 275.334 86.854C275.778 86.11 276.378 85.522 277.134 85.09C277.902 84.658 278.754 84.442 279.69 84.442C280.626 84.442 281.472 84.658 282.228 85.09C282.996 85.522 283.596 86.11 284.028 86.854C284.472 87.586 284.694 88.408 284.694 89.32C284.694 90.232 284.472 91.054 284.028 91.786C283.596 92.518 283.002 93.1 282.246 93.532C281.49 93.964 280.638 94.18 279.69 94.18ZM279.69 92.038C280.182 92.038 280.62 91.918 281.004 91.678C281.4 91.438 281.712 91.114 281.94 90.706C282.18 90.286 282.3 89.824 282.3 89.32C282.3 88.804 282.18 88.342 281.94 87.934C281.712 87.526 281.4 87.202 281.004 86.962C280.62 86.71 280.182 86.584 279.69 86.584C279.21 86.584 278.772 86.71 278.376 86.962C277.98 87.202 277.668 87.526 277.44 87.934C277.212 88.342 277.098 88.804 277.098 89.32C277.098 89.824 277.212 90.286 277.44 90.706C277.668 91.114 277.98 91.438 278.376 91.678C278.772 91.918 279.21 92.038 279.69 92.038ZM286.21 94V84.622H288.676V85.666C288.976 85.258 289.336 84.946 289.756 84.73C290.176 84.514 290.65 84.406 291.178 84.406C291.634 84.418 291.976 84.49 292.204 84.622V86.782C292.024 86.698 291.826 86.638 291.61 86.602C291.394 86.554 291.172 86.53 290.944 86.53C290.464 86.53 290.026 86.65 289.63 86.89C289.234 87.13 288.916 87.472 288.676 87.916V94H286.21ZM297.779 94.18C296.843 94.18 295.991 93.964 295.223 93.532C294.467 93.1 293.867 92.518 293.423 91.786C292.979 91.054 292.757 90.232 292.757 89.32C292.757 88.408 292.967 87.586 293.387 86.854C293.819 86.122 294.401 85.54 295.133 85.108C295.865 84.676 296.681 84.46 297.581 84.46C298.481 84.46 299.279 84.682 299.975 85.126C300.671 85.57 301.217 86.17 301.613 86.926C302.021 87.682 302.225 88.54 302.225 89.5V90.148H295.277C295.385 90.52 295.559 90.856 295.799 91.156C296.051 91.456 296.357 91.69 296.717 91.858C297.089 92.026 297.485 92.11 297.905 92.11C298.325 92.11 298.709 92.044 299.057 91.912C299.417 91.78 299.723 91.594 299.975 91.354L301.595 92.83C301.019 93.298 300.425 93.64 299.813 93.856C299.213 94.072 298.535 94.18 297.779 94.18ZM295.241 88.384H299.795C299.711 88.012 299.555 87.688 299.327 87.412C299.111 87.124 298.847 86.902 298.535 86.746C298.235 86.578 297.899 86.494 297.527 86.494C297.143 86.494 296.795 86.572 296.483 86.728C296.171 86.884 295.907 87.106 295.691 87.394C295.487 87.67 295.337 88 295.241 88.384ZM306.671 94.162C305.999 94.162 305.405 94.042 304.889 93.802C304.373 93.55 303.971 93.208 303.683 92.776C303.395 92.344 303.251 91.846 303.251 91.282C303.251 90.382 303.587 89.686 304.259 89.194C304.943 88.69 305.879 88.438 307.067 88.438C307.883 88.438 308.651 88.564 309.371 88.816V88.132C309.371 87.592 309.203 87.184 308.867 86.908C308.531 86.632 308.039 86.494 307.391 86.494C306.995 86.494 306.569 86.56 306.113 86.692C305.657 86.812 305.129 87.004 304.529 87.268L303.629 85.45C304.373 85.114 305.081 84.862 305.753 84.694C306.437 84.526 307.121 84.442 307.805 84.442C309.065 84.442 310.043 84.748 310.739 85.36C311.447 85.96 311.801 86.812 311.801 87.916V94H309.371V93.334C308.987 93.622 308.573 93.832 308.129 93.964C307.685 94.096 307.199 94.162 306.671 94.162ZM305.591 91.228C305.591 91.588 305.747 91.876 306.059 92.092C306.371 92.296 306.785 92.398 307.301 92.398C307.709 92.398 308.087 92.35 308.435 92.254C308.783 92.146 309.095 91.99 309.371 91.786V90.418C309.071 90.298 308.759 90.208 308.435 90.148C308.111 90.088 307.763 90.058 307.391 90.058C306.827 90.058 306.383 90.166 306.059 90.382C305.747 90.586 305.591 90.868 305.591 91.228Z" fill="white"/>
<path d="M145.281 60.4141V71.0781H143.793V60.4141H145.281ZM138.367 61.4336V67.1641C139.809 67.1465 141.355 67.0117 142.926 66.707L143.113 67.9375C141.238 68.3242 139.48 68.4531 137.828 68.4414H136.891V61.4336H138.367ZM155.901 60.8242V61.832C155.901 62.8867 155.901 63.9297 155.596 65.3477L154.12 65.2305C154.225 64.7559 154.289 64.3223 154.33 63.918L148.295 64.1758L148.108 62.9453L154.413 62.8164L154.424 62.0078H148.401V60.8242H155.901ZM156.991 65.8867V67.0703H147.311V65.8867H150.932V64.5508H152.432V65.8867H156.991ZM156.077 69.7188V70.9141H148.436V67.7266H149.936V69.7188H156.077ZM167.188 60.4141V71.1016H165.677V60.4141H167.188ZM161.399 61.1641C163.005 61.1641 164.2 62.6406 164.2 64.9609C164.2 67.3047 163.005 68.7695 161.399 68.7695C159.759 68.7695 158.563 67.3047 158.575 64.9609C158.563 62.6406 159.759 61.1641 161.399 61.1641ZM161.399 62.5117C160.567 62.5117 160.016 63.3789 160.016 64.9609C160.016 66.5547 160.567 67.4102 161.399 67.4102C162.208 67.4102 162.759 66.5547 162.759 64.9609C162.759 63.3789 162.208 62.5117 161.399 62.5117ZM174.913 61.375V68.5352H169.757V61.375H174.913ZM171.257 62.5469V67.3516H173.46V62.5469H171.257ZM178.159 60.4141V71.1016H176.648V60.4141H178.159ZM189.13 60.4258V66.7539H187.63V60.4258H189.13ZM185.498 66.9531C187.759 66.9531 189.154 67.7148 189.166 69.0273C189.154 70.3516 187.759 71.1016 185.498 71.0898C183.224 71.1016 181.83 70.3516 181.83 69.0273C181.83 67.7148 183.224 66.9531 185.498 66.9531ZM185.498 68.1133C184.08 68.1133 183.33 68.4297 183.33 69.0273C183.33 69.6367 184.08 69.9531 185.498 69.9414C186.904 69.9531 187.689 69.6367 187.689 69.0273C187.689 68.4297 186.904 68.1133 185.498 68.1133ZM186.505 61.1289V62.3359H184.373C184.42 63.543 185.211 64.7324 186.904 65.2422L186.142 66.4141C184.953 66.0508 184.115 65.3066 183.634 64.3633C183.148 65.4238 182.281 66.2734 181.021 66.6836L180.248 65.5C181.97 64.9434 182.779 63.6484 182.838 62.3359H180.646V61.1289H186.505ZM199.926 61.3047V62.2539C199.926 63.543 199.938 65.043 199.445 67.3516L197.98 67.1992C198.156 66.3906 198.262 65.6699 198.332 65.0195L192.145 65.3711L191.934 64.0938L198.426 63.8828C198.449 63.3789 198.455 62.9219 198.461 62.5H192.285V61.3047H199.926ZM200.898 68.6289V69.8477H191.172V68.6289H194.652V66.0508H196.141V68.6289H200.898ZM211.084 60.4141V71.1016H209.596V60.4141H211.084ZM207.78 61.3047V65.418H204.264V67.375C205.887 67.3691 207.27 67.2754 208.834 67.0234L208.963 68.2305C207.205 68.5352 205.623 68.6055 203.678 68.6055H202.717V64.2344H206.256V62.5117H202.705V61.3047H207.78ZM215.985 61.1641C217.614 61.1641 218.786 62.6406 218.798 64.9609C218.786 67.3047 217.614 68.7695 215.985 68.7695C214.356 68.7695 213.161 67.3047 213.173 64.9609C213.161 62.6406 214.356 61.1641 215.985 61.1641ZM215.985 62.5117C215.165 62.5117 214.614 63.3789 214.614 64.9609C214.614 66.5547 215.165 67.4102 215.985 67.4102C216.817 67.4102 217.356 66.5547 217.368 64.9609C217.356 63.3789 216.817 62.5117 215.985 62.5117ZM221.528 60.4141V64.4336H223.098V65.6758H221.528V71.0781H220.028V60.4141H221.528Z" fill="white"/>
</svg>
