<svg width="30" height="30" viewBox="0 0 30 30" fill="none" xmlns="http://www.w3.org/2000/svg">
<path d="M27.7759 8.60029C27.4692 7.44559 26.5657 6.53605 25.4183 6.22741C23.3388 5.6665 14.9998 5.6665 14.9998 5.6665C14.9998 5.6665 6.6609 5.6665 4.5812 6.22741C3.43393 6.53605 2.53029 7.44559 2.22363 8.60029C1.6665 10.6935 1.6665 15.0604 1.6665 15.0604C1.6665 15.0604 1.6665 19.4276 2.22363 21.5207C2.53029 22.6754 3.43393 23.5848 4.5812 23.8936C6.6609 24.4544 14.9998 24.4544 14.9998 24.4544C14.9998 24.4544 23.3388 24.4544 25.4183 23.8936C26.5657 23.5848 27.4692 22.6754 27.7759 21.5207C28.3332 19.4276 28.3332 15.0604 28.3332 15.0604C28.3332 15.0604 28.3332 10.6935 27.7759 8.60029Z" fill="#ED1F24"/>
<path d="M12.271 19.0253L19.2407 15.0605L12.271 11.0955V19.0253Z" fill="white"/>
</svg>
